<svg xmlns="http://www.w3.org/2000/svg" viewBox="0 0 64 64">
  <defs>
    <linearGradient id="g" x1="0" y1="0" x2="0" y2="1">
      <stop offset="0%" stop-color="#ff6b00"/>
      <stop offset="100%" stop-color="#d4a843"/>
    </linearGradient>
  </defs>
  <!-- Hourglass frame -->
  <rect x="14" y="4" width="36" height="4" rx="2" fill="url(#g)"/>
  <rect x="14" y="56" width="36" height="4" rx="2" fill="url(#g)"/>
  <!-- Glass body -->
  <path d="M18 8 L18 22 Q18 32 32 32 Q46 32 46 22 L46 8 Z" fill="none" stroke="#ff6b00" stroke-width="2.5" opacity="0.8"/>
  <path d="M18 56 L18 42 Q18 32 32 32 Q46 32 46 42 L46 56 Z" fill="none" stroke="#ff6b00" stroke-width="2.5" opacity="0.8"/>
  <!-- Sand top -->
  <path d="M22 10 L22 20 Q22 28 32 30 Q42 28 42 20 L42 10 Z" fill="#d4a843" opacity="0.3"/>
  <!-- Sand bottom -->
  <path d="M24 54 L24 46 Q24 38 32 36 Q40 38 40 46 L40 54 Z" fill="#ff6b00" opacity="0.5"/>
  <!-- Sand stream -->
  <line x1="32" y1="30" x2="32" y2="36" stroke="#d4a843" stroke-width="1.5" opacity="0.6"/>
  <!-- Glow dot center -->
  <circle cx="32" cy="32" r="2" fill="#ff6b00" opacity="0.9"/>
</svg>
